<?xml version="1.0" ?><svg id="Layer_1" style="enable-background:new 0 0 24 24;" version="1.1" viewBox="0 0 24 24" xml:space="preserve" xmlns="http://www.w3.org/2000/svg" xmlns:xlink="http://www.w3.org/1999/xlink"><style type="text/css">
	.st0{fill:#1E232D;}
</style><path class="st0" d="M13,24h2V3h-2V24z M13,2h2V0h-2V2z M9,24h2v-8H9V24z M9,15h2v-2H9V15z M17,24h2V7h-2V24z M17,6h2V4h-2V6z   M21,24h2v-6h-2V24z M21,15v2h2v-2H21z M5,24h2V9H5V24z M5,8h2V6H5V8z M1,24h2V14H1V24z M1,13h2v-2H1V13z"/></svg>